<?xml version="1.0" encoding="UTF-8" standalone="no"?>
<!DOCTYPE svg PUBLIC "-//W3C//DTD SVG 1.1//EN"
 "http://www.w3.org/Graphics/SVG/1.1/DTD/svg11.dtd">
<!-- Generated by graphviz version 2.40.1 (20161225.0304)
 -->
<!-- Pages: 1 -->
<svg width="479pt" height="440pt"
 viewBox="0.00 0.00 479.32 440.00" xmlns="http://www.w3.org/2000/svg" xmlns:xlink="http://www.w3.org/1999/xlink">
<g id="graph0" class="graph" transform="scale(1 1) rotate(0) translate(4 436)">
<polygon fill="#ffffff" stroke="transparent" points="-4,4 -4,-436 475.3172,-436 475.3172,4 -4,4"/>
<!-- coupon -->
<g id="node1" class="node">
<title>coupon</title>
<path fill="#99bd25" stroke="#99bd25" d="M74,-48C74,-48 12,-48 12,-48 6,-48 0,-42 0,-36 0,-36 0,-12 0,-12 0,-6 6,0 12,0 12,0 74,0 74,0 80,0 86,-6 86,-12 86,-12 86,-36 86,-36 86,-42 80,-48 74,-48"/>
<text text-anchor="middle" x="43" y="-17.4" font-family="Times,serif" font-size="22.00" fill="#ffffff">coupon</text>
</g>
<!-- eshop_gw -->
<g id="node2" class="node">
<title>eshop_gw</title>
<path fill="#99bd25" stroke="#99bd25" d="M214.7036,-432C214.7036,-432 133.2964,-432 133.2964,-432 127.2964,-432 121.2964,-426 121.2964,-420 121.2964,-420 121.2964,-396 121.2964,-396 121.2964,-390 127.2964,-384 133.2964,-384 133.2964,-384 214.7036,-384 214.7036,-384 220.7036,-384 226.7036,-390 226.7036,-396 226.7036,-396 226.7036,-420 226.7036,-420 226.7036,-426 220.7036,-432 214.7036,-432"/>
<text text-anchor="middle" x="174" y="-401.4" font-family="Times,serif" font-size="22.00" fill="#ffffff">eshop_gw</text>
</g>
<!-- eshop_gw&#45;&gt;coupon -->
<g id="edge5" class="edge">
<title>eshop_gw&#45;&gt;coupon</title>
<path fill="none" stroke="#909090" d="M121.0949,-392.4171C84.7376,-378.0777 43,-352.7435 43,-312 43,-312 43,-312 43,-120 43,-97.9883 43,-73.1376 43,-54.2357"/>
<polygon fill="#909090" stroke="#909090" points="45.1001,-54.0662 43,-48.0662 40.9001,-54.0662 45.1001,-54.0662"/>
<text text-anchor="middle" x="51.884" y="-213" font-family="Times,serif" font-size="10.00" fill="#909090">grpc</text>
</g>
<!-- user -->
<g id="node3" class="node">
<title>user</title>
<path fill="#99bd25" stroke="#99bd25" d="M241,-336C241,-336 179,-336 179,-336 173,-336 167,-330 167,-324 167,-324 167,-300 167,-300 167,-294 173,-288 179,-288 179,-288 241,-288 241,-288 247,-288 253,-294 253,-300 253,-300 253,-324 253,-324 253,-330 247,-336 241,-336"/>
<text text-anchor="middle" x="210" y="-305.4" font-family="Times,serif" font-size="22.00" fill="#ffffff">user</text>
</g>
<!-- eshop_gw&#45;&gt;user -->
<g id="edge1" class="edge">
<title>eshop_gw&#45;&gt;user</title>
<path fill="none" stroke="#909090" d="M183.0843,-383.7751C187.8595,-371.0414 193.7546,-355.3211 198.8094,-341.8416"/>
<polygon fill="#909090" stroke="#909090" points="200.7781,-342.5725 200.9186,-336.2171 196.8455,-341.0977 200.7781,-342.5725"/>
<text text-anchor="middle" x="203.884" y="-357" font-family="Times,serif" font-size="10.00" fill="#909090">grpc</text>
</g>
<!-- product -->
<g id="node4" class="node">
<title>product</title>
<path fill="#99bd25" stroke="#99bd25" d="M345,-336C345,-336 283,-336 283,-336 277,-336 271,-330 271,-324 271,-324 271,-300 271,-300 271,-294 277,-288 283,-288 283,-288 345,-288 345,-288 351,-288 357,-294 357,-300 357,-300 357,-324 357,-324 357,-330 351,-336 345,-336"/>
<text text-anchor="middle" x="314" y="-305.4" font-family="Times,serif" font-size="22.00" fill="#ffffff">product</text>
</g>
<!-- eshop_gw&#45;&gt;product -->
<g id="edge2" class="edge">
<title>eshop_gw&#45;&gt;product</title>
<path fill="none" stroke="#909090" d="M209.3279,-383.7751C228.8928,-370.3592 253.2922,-353.6282 273.611,-339.6953"/>
<polygon fill="#909090" stroke="#909090" points="274.9226,-341.3423 278.6834,-336.2171 272.5474,-337.8784 274.9226,-341.3423"/>
<text text-anchor="middle" x="261.884" y="-357" font-family="Times,serif" font-size="10.00" fill="#909090">grpc</text>
</g>
<!-- order -->
<g id="node5" class="node">
<title>order</title>
<path fill="#99bd25" stroke="#99bd25" d="M262,-144C262,-144 200,-144 200,-144 194,-144 188,-138 188,-132 188,-132 188,-108 188,-108 188,-102 194,-96 200,-96 200,-96 262,-96 262,-96 268,-96 274,-102 274,-108 274,-108 274,-132 274,-132 274,-138 268,-144 262,-144"/>
<text text-anchor="middle" x="231" y="-113.4" font-family="Times,serif" font-size="22.00" fill="#ffffff">order</text>
</g>
<!-- eshop_gw&#45;&gt;order -->
<g id="edge3" class="edge">
<title>eshop_gw&#45;&gt;order</title>
<path fill="none" stroke="#909090" d="M166.0501,-383.9213C159.1169,-359.5684 151.1559,-320.9245 158,-288 168.6153,-236.934 195.5923,-182.3439 213.6089,-149.7057"/>
<polygon fill="#909090" stroke="#909090" points="215.5537,-150.5299 216.6409,-144.2666 211.8852,-148.4848 215.5537,-150.5299"/>
<text text-anchor="middle" x="174.884" y="-261" font-family="Times,serif" font-size="10.00" fill="#909090">grpc</text>
</g>
<!-- stock -->
<g id="node6" class="node">
<title>stock</title>
<path fill="#99bd25" stroke="#99bd25" d="M178,-48C178,-48 116,-48 116,-48 110,-48 104,-42 104,-36 104,-36 104,-12 104,-12 104,-6 110,0 116,0 116,0 178,0 178,0 184,0 190,-6 190,-12 190,-12 190,-36 190,-36 190,-42 184,-48 178,-48"/>
<text text-anchor="middle" x="147" y="-17.4" font-family="Times,serif" font-size="22.00" fill="#ffffff">stock</text>
</g>
<!-- eshop_gw&#45;&gt;stock -->
<g id="edge4" class="edge">
<title>eshop_gw&#45;&gt;stock</title>
<path fill="none" stroke="#909090" d="M139.1047,-383.6479C118.7314,-366.3347 97,-341.057 97,-312 97,-312 97,-312 97,-120 97,-95.6089 109.8534,-71.2727 122.5264,-53.206"/>
<polygon fill="#909090" stroke="#909090" points="124.2727,-54.3747 126.0852,-48.2817 120.8687,-51.9146 124.2727,-54.3747"/>
<text text-anchor="middle" x="105.884" y="-213" font-family="Times,serif" font-size="10.00" fill="#909090">grpc</text>
</g>
<!-- flashSale -->
<g id="node7" class="node">
<title>flashSale</title>
<path fill="#99bd25" stroke="#99bd25" d="M459.1351,-336C459.1351,-336 386.8649,-336 386.8649,-336 380.8649,-336 374.8649,-330 374.8649,-324 374.8649,-324 374.8649,-300 374.8649,-300 374.8649,-294 380.8649,-288 386.8649,-288 386.8649,-288 459.1351,-288 459.1351,-288 465.1351,-288 471.1351,-294 471.1351,-300 471.1351,-300 471.1351,-324 471.1351,-324 471.1351,-330 465.1351,-336 459.1351,-336"/>
<text text-anchor="middle" x="423" y="-305.4" font-family="Times,serif" font-size="22.00" fill="#ffffff">flashSale</text>
</g>
<!-- eshop_gw&#45;&gt;flashSale -->
<g id="edge6" class="edge">
<title>eshop_gw&#45;&gt;flashSale</title>
<path fill="none" stroke="#909090" d="M226.7788,-388.8496C265.4718,-374.6545 319.1942,-354.6214 366,-336 367.085,-335.5684 368.1806,-335.1301 369.2841,-334.6865"/>
<polygon fill="#909090" stroke="#909090" points="370.0805,-336.6297 374.8533,-332.4307 368.5037,-332.7369 370.0805,-336.6297"/>
<text text-anchor="middle" x="326.884" y="-357" font-family="Times,serif" font-size="10.00" fill="#909090">grpc</text>
</g>
<!-- order&#45;&gt;coupon -->
<g id="edge12" class="edge">
<title>order&#45;&gt;coupon</title>
<path fill="none" stroke="#909090" d="M187.869,-97.9757C159.1917,-83.3319 121.4753,-64.0725 91.7156,-48.8761"/>
<polygon fill="#909090" stroke="#909090" points="92.5541,-46.9463 86.2554,-46.0879 90.644,-50.6869 92.5541,-46.9463"/>
<text text-anchor="middle" x="157.884" y="-69" font-family="Times,serif" font-size="10.00" fill="#909090">grpc</text>
</g>
<!-- order&#45;&gt;stock -->
<g id="edge11" class="edge">
<title>order&#45;&gt;stock</title>
<path fill="none" stroke="#909090" d="M209.8033,-95.7751C198.3628,-82.7003 184.1672,-66.4768 172.1679,-52.7633"/>
<polygon fill="#909090" stroke="#909090" points="173.7214,-51.3497 168.19,-48.2171 170.5606,-54.1155 173.7214,-51.3497"/>
<text text-anchor="middle" x="203.884" y="-69" font-family="Times,serif" font-size="10.00" fill="#909090">grpc</text>
</g>
<!-- dtmservice -->
<g id="node9" class="node">
<title>dtmservice</title>
<path fill="#99bd25" stroke="#99bd25" d="M439.0194,-48C439.0194,-48 350.9806,-48 350.9806,-48 344.9806,-48 338.9806,-42 338.9806,-36 338.9806,-36 338.9806,-12 338.9806,-12 338.9806,-6 344.9806,0 350.9806,0 350.9806,0 439.0194,0 439.0194,0 445.0194,0 451.0194,-6 451.0194,-12 451.0194,-12 451.0194,-36 451.0194,-36 451.0194,-42 445.0194,-48 439.0194,-48"/>
<text text-anchor="middle" x="395" y="-17.4" font-family="Times,serif" font-size="22.00" fill="#ffffff">dtmservice</text>
</g>
<!-- order&#45;&gt;dtmservice -->
<g id="edge10" class="edge">
<title>order&#45;&gt;dtmservice</title>
<path fill="none" stroke="#909090" d="M272.3841,-95.7751C295.5855,-82.1939 324.5905,-65.2153 348.5649,-51.1815"/>
<polygon fill="#909090" stroke="#909090" points="349.7963,-52.8941 353.9135,-48.0507 347.6745,-49.2694 349.7963,-52.8941"/>
<text text-anchor="middle" x="330.884" y="-69" font-family="Times,serif" font-size="10.00" fill="#909090">grpc</text>
</g>
<!-- pay -->
<g id="node10" class="node">
<title>pay</title>
<path fill="#99bd25" stroke="#99bd25" d="M282,-48C282,-48 220,-48 220,-48 214,-48 208,-42 208,-36 208,-36 208,-12 208,-12 208,-6 214,0 220,0 220,0 282,0 282,0 288,0 294,-6 294,-12 294,-12 294,-36 294,-36 294,-42 288,-48 282,-48"/>
<text text-anchor="middle" x="251" y="-17.4" font-family="Times,serif" font-size="22.00" fill="#ffffff">pay</text>
</g>
<!-- order&#45;&gt;pay -->
<g id="edge13" class="edge">
<title>order&#45;&gt;pay</title>
<path fill="none" stroke="#909090" d="M236.0468,-95.7751C238.676,-83.1551 241.9163,-67.6015 244.7077,-54.2032"/>
<polygon fill="#909090" stroke="#909090" points="246.7868,-54.5193 245.9548,-48.2171 242.6751,-53.6627 246.7868,-54.5193"/>
<text text-anchor="middle" x="251.884" y="-69" font-family="Times,serif" font-size="10.00" fill="#909090">grpc</text>
</g>
<!-- kafka -->
<g id="node8" class="node">
<title>kafka</title>
<path fill="#16b69e" stroke="#16b69e" d="M346,-240C346,-240 284,-240 284,-240 278,-240 272,-234 272,-228 272,-228 272,-204 272,-204 272,-198 278,-192 284,-192 284,-192 346,-192 346,-192 352,-192 358,-198 358,-204 358,-204 358,-228 358,-228 358,-234 352,-240 346,-240"/>
<text text-anchor="middle" x="315" y="-209.4" font-family="Times,serif" font-size="22.00" fill="#ffffff">kafka</text>
</g>
<!-- flashSale&#45;&gt;kafka -->
<g id="edge7" class="edge">
<title>flashSale&#45;&gt;kafka</title>
<path fill="none" stroke="#16b69e" d="M395.747,-287.7751C380.9099,-274.5866 362.4687,-258.1944 346.9569,-244.4062"/>
<polygon fill="#16b69e" stroke="#16b69e" points="348.1239,-242.6338 342.2442,-240.2171 345.3335,-245.7729 348.1239,-242.6338"/>
<text text-anchor="middle" x="381.3895" y="-261" font-family="Times,serif" font-size="10.00" fill="#16b69e">mq</text>
</g>
<!-- flashSale&#45;&gt;dtmservice -->
<g id="edge8" class="edge">
<title>flashSale&#45;&gt;dtmservice</title>
<path fill="none" stroke="#909090" d="M420.6609,-287.9406C415.5756,-235.6349 403.5226,-111.6614 397.9364,-54.2027"/>
<polygon fill="#909090" stroke="#909090" points="400.023,-53.962 397.3521,-48.1934 395.8427,-54.3685 400.023,-53.962"/>
<text text-anchor="middle" x="417.884" y="-165" font-family="Times,serif" font-size="10.00" fill="#909090">grpc</text>
</g>
<!-- kafka&#45;&gt;order -->
<g id="edge9" class="edge">
<title>kafka&#45;&gt;order</title>
<path fill="none" stroke="#16b69e" d="M289.825,-187.2285C279.2311,-175.1213 266.9263,-161.0586 256.3172,-148.934"/>
<polygon fill="#16b69e" stroke="#16b69e" points="288.2718,-188.6425 293.8033,-191.7751 291.4326,-185.8768 288.2718,-188.6425"/>
<polygon fill="#16b69e" stroke="#16b69e" points="257.7214,-147.3497 252.19,-144.2171 254.5606,-150.1155 257.7214,-147.3497"/>
<text text-anchor="middle" x="284.3895" y="-165" font-family="Times,serif" font-size="10.00" fill="#16b69e">mq</text>
</g>
</g>
</svg>
